<svg xmlns="http://www.w3.org/2000/svg" viewBox="0 0 1200 630" width="1200" height="630">
  <defs>
    <linearGradient id="bg" x1="0" y1="0" x2="1" y2="1"><stop offset="0%" stop-color="#060913"/><stop offset="100%" stop-color="#0d1628"/></linearGradient>
    <linearGradient id="gold" x1="0" y1="0" x2="1" y2="0"><stop offset="0%" stop-color="#C4A052"/><stop offset="100%" stop-color="#D4B76A"/></linearGradient>
  </defs>
  <rect width="1200" height="630" fill="url(#bg)"/>
  <!-- Subtle world map dots -->
  <g opacity="0.08" fill="#C4A052">
    <!-- North America -->
    <circle cx="250" cy="220" r="2"/><circle cx="265" cy="210" r="2"/><circle cx="240" cy="230" r="2"/>
    <circle cx="280" cy="225" r="2"/><circle cx="260" cy="240" r="2"/><circle cx="245" cy="215" r="2"/>
    <circle cx="270" cy="235" r="2"/><circle cx="235" cy="225" r="2"/><circle cx="255" cy="200" r="2"/>
    <circle cx="290" cy="240" r="2"/><circle cx="300" cy="230" r="2"/><circle cx="275" cy="215" r="2"/>
    <circle cx="310" cy="260" r="2"/><circle cx="295" cy="255" r="2"/><circle cx="285" cy="250" r="2"/>
    <!-- South America -->
    <circle cx="320" cy="350" r="2"/><circle cx="330" cy="370" r="2"/><circle cx="325" cy="390" r="2"/>
    <circle cx="315" cy="360" r="2"/><circle cx="335" cy="380" r="2"/><circle cx="340" cy="400" r="2"/>
    <!-- Europe -->
    <circle cx="550" cy="200" r="2"/><circle cx="565" cy="190" r="2"/><circle cx="575" cy="205" r="2"/>
    <circle cx="560" cy="215" r="2"/><circle cx="585" cy="195" r="2"/><circle cx="545" cy="210" r="2"/>
    <circle cx="590" cy="210" r="2"/><circle cx="570" cy="220" r="2"/><circle cx="555" cy="225" r="2"/>
    <!-- Africa -->
    <circle cx="570" cy="310" r="2"/><circle cx="585" cy="320" r="2"/><circle cx="575" cy="340" r="2"/>
    <circle cx="590" cy="350" r="2"/><circle cx="565" cy="330" r="2"/><circle cx="580" cy="360" r="2"/>
    <!-- Middle East -->
    <circle cx="640" cy="260" r="2"/><circle cx="655" cy="255" r="2"/><circle cx="650" cy="270" r="2"/>
    <!-- Asia -->
    <circle cx="800" cy="230" r="2"/><circle cx="815" cy="220" r="2"/><circle cx="830" cy="240" r="2"/>
    <circle cx="845" cy="225" r="2"/><circle cx="820" cy="250" r="2"/><circle cx="790" cy="240" r="2"/>
    <circle cx="860" cy="235" r="2"/><circle cx="875" cy="245" r="2"/><circle cx="840" cy="260" r="2"/>
    <circle cx="880" cy="260" r="2"/><circle cx="895" cy="250" r="2"/>
    <!-- Australia -->
    <circle cx="900" cy="400" r="2"/><circle cx="915" cy="395" r="2"/><circle cx="910" cy="410" r="2"/>
    <circle cx="925" cy="405" r="2"/><circle cx="895" cy="415" r="2"/>
  </g>
  <!-- Title -->
  <text x="600" y="60" text-anchor="middle" font-family="Helvetica,sans-serif" font-size="14" font-weight="bold" fill="#C4A052" letter-spacing="4">LONDWAY CAPITAL</text>
  <text x="600" y="95" text-anchor="middle" font-family="Helvetica,sans-serif" font-size="32" font-weight="bold" fill="#fff">Global Banking Network</text>
  <rect x="520" y="108" width="160" height="3" rx="1.5" fill="url(#gold)" opacity="0.5"/>
  <!-- Connection lines between major hubs -->
  <g stroke="#C4A052" stroke-width="0.8" opacity="0.15">
    <!-- NYC to London -->
    <line x1="280" y1="240" x2="555" y2="205"/>
    <!-- London to Dubai -->
    <line x1="570" y1="210" x2="645" y2="260"/>
    <!-- London to Singapore -->
    <line x1="575" y1="215" x2="830" y2="285"/>
    <!-- NYC to Sao Paulo -->
    <line x1="285" y1="245" x2="330" y2="370"/>
    <!-- Dubai to Mumbai -->
    <line x1="650" y1="265" x2="740" y2="280"/>
    <!-- Singapore to Sydney -->
    <line x1="835" y1="290" x2="905" y2="400"/>
    <!-- London to NYC dash -->
    <line x1="555" y1="200" x2="280" y2="235"/>
    <!-- Tokyo to Singapore -->
    <line x1="890" y1="245" x2="835" y2="285"/>
    <!-- HK to Singapore -->
    <line x1="860" y1="270" x2="835" y2="285"/>
  </g>
  <!-- Major hub cities with glowing dots -->
  <!-- New York -->
  <g>
    <circle cx="280" cy="240" r="8" fill="#C4A052" opacity="0.15"/>
    <circle cx="280" cy="240" r="5" fill="#C4A052" opacity="0.4"/>
    <circle cx="280" cy="240" r="3" fill="#C4A052"/>
    <text x="280" y="262" text-anchor="middle" font-family="Helvetica,sans-serif" font-size="11" fill="#fff" font-weight="bold">New York</text>
    <text x="280" y="276" text-anchor="middle" font-family="Helvetica,sans-serif" font-size="9" fill="#C4A052">HQ</text>
  </g>
  <!-- London -->
  <g>
    <circle cx="555" cy="200" r="8" fill="#C4A052" opacity="0.15"/>
    <circle cx="555" cy="200" r="5" fill="#C4A052" opacity="0.4"/>
    <circle cx="555" cy="200" r="3" fill="#C4A052"/>
    <text x="555" y="185" text-anchor="middle" font-family="Helvetica,sans-serif" font-size="11" fill="#fff" font-weight="bold">London</text>
  </g>
  <!-- Dubai -->
  <g>
    <circle cx="645" cy="260" r="6" fill="#C4A052" opacity="0.15"/>
    <circle cx="645" cy="260" r="4" fill="#C4A052" opacity="0.4"/>
    <circle cx="645" cy="260" r="2.5" fill="#C4A052"/>
    <text x="645" y="248" text-anchor="middle" font-family="Helvetica,sans-serif" font-size="10" fill="#fff">Dubai</text>
  </g>
  <!-- Singapore -->
  <g>
    <circle cx="835" cy="285" r="7" fill="#C4A052" opacity="0.15"/>
    <circle cx="835" cy="285" r="4.5" fill="#C4A052" opacity="0.4"/>
    <circle cx="835" cy="285" r="2.5" fill="#C4A052"/>
    <text x="835" y="305" text-anchor="middle" font-family="Helvetica,sans-serif" font-size="10" fill="#fff">Singapore</text>
  </g>
  <!-- Hong Kong -->
  <g>
    <circle cx="860" cy="270" r="5" fill="#C4A052" opacity="0.15"/>
    <circle cx="860" cy="270" r="3" fill="#C4A052" opacity="0.4"/>
    <circle cx="860" cy="270" r="2" fill="#C4A052"/>
    <text x="880" y="265" font-family="Helvetica,sans-serif" font-size="10" fill="#fff">Hong Kong</text>
  </g>
  <!-- Tokyo -->
  <g>
    <circle cx="890" cy="240" r="5" fill="#C4A052" opacity="0.15"/>
    <circle cx="890" cy="240" r="3" fill="#C4A052" opacity="0.4"/>
    <circle cx="890" cy="240" r="2" fill="#C4A052"/>
    <text x="910" y="235" font-family="Helvetica,sans-serif" font-size="10" fill="#fff">Tokyo</text>
  </g>
  <!-- São Paulo -->
  <g>
    <circle cx="330" cy="370" r="5" fill="#C4A052" opacity="0.15"/>
    <circle cx="330" cy="370" r="3" fill="#C4A052" opacity="0.4"/>
    <circle cx="330" cy="370" r="2" fill="#C4A052"/>
    <text x="330" y="390" text-anchor="middle" font-family="Helvetica,sans-serif" font-size="10" fill="#fff">São Paulo</text>
  </g>
  <!-- Sydney -->
  <g>
    <circle cx="905" cy="400" r="5" fill="#C4A052" opacity="0.15"/>
    <circle cx="905" cy="400" r="3" fill="#C4A052" opacity="0.4"/>
    <circle cx="905" cy="400" r="2" fill="#C4A052"/>
    <text x="905" y="420" text-anchor="middle" font-family="Helvetica,sans-serif" font-size="10" fill="#fff">Sydney</text>
  </g>
  <!-- Mumbai -->
  <g>
    <circle cx="740" cy="280" r="4" fill="#C4A052" opacity="0.15"/>
    <circle cx="740" cy="280" r="2.5" fill="#C4A052" opacity="0.4"/>
    <circle cx="740" cy="280" r="1.5" fill="#C4A052"/>
    <text x="740" y="298" text-anchor="middle" font-family="Helvetica,sans-serif" font-size="10" fill="#fff">Mumbai</text>
  </g>
  <!-- Zurich -->
  <g>
    <circle cx="570" cy="215" r="4" fill="#C4A052" opacity="0.15"/>
    <circle cx="570" cy="215" r="2.5" fill="#C4A052" opacity="0.4"/>
    <circle cx="570" cy="215" r="1.5" fill="#C4A052"/>
    <text x="570" y="232" text-anchor="middle" font-family="Helvetica,sans-serif" font-size="10" fill="#fff">Zurich</text>
  </g>
  <!-- Bottom stats bar -->
  <rect x="0" y="480" width="1200" height="150" fill="rgba(196,160,82,0.02)"/>
  <rect x="0" y="480" width="1200" height="1" fill="#C4A052" opacity="0.1"/>
  <!-- Stat cards -->
  <g transform="translate(80,505)">
    <rect width="220" height="85" rx="10" fill="rgba(196,160,82,0.04)" stroke="rgba(196,160,82,0.12)" stroke-width="1"/>
    <text x="110" y="30" text-anchor="middle" font-family="Helvetica,sans-serif" font-size="28" font-weight="bold" fill="#C4A052">180+</text>
    <text x="110" y="52" text-anchor="middle" font-family="Helvetica,sans-serif" font-size="12" fill="#9CA3AF">Countries &amp; Territories</text>
    <text x="110" y="70" text-anchor="middle" font-family="Helvetica,sans-serif" font-size="10" fill="#6B7280">Instant cross-border transfers</text>
  </g>
  <g transform="translate(340,505)">
    <rect width="220" height="85" rx="10" fill="rgba(196,160,82,0.04)" stroke="rgba(196,160,82,0.12)" stroke-width="1"/>
    <text x="110" y="30" text-anchor="middle" font-family="Helvetica,sans-serif" font-size="28" font-weight="bold" fill="#C4A052">32</text>
    <text x="110" y="52" text-anchor="middle" font-family="Helvetica,sans-serif" font-size="12" fill="#9CA3AF">Currencies Supported</text>
    <text x="110" y="70" text-anchor="middle" font-family="Helvetica,sans-serif" font-size="10" fill="#6B7280">Real-time FX rates</text>
  </g>
  <g transform="translate(600,505)">
    <rect width="220" height="85" rx="10" fill="rgba(196,160,82,0.04)" stroke="rgba(196,160,82,0.12)" stroke-width="1"/>
    <text x="110" y="30" text-anchor="middle" font-family="Helvetica,sans-serif" font-size="28" font-weight="bold" fill="#C4A052">12</text>
    <text x="110" y="52" text-anchor="middle" font-family="Helvetica,sans-serif" font-size="12" fill="#9CA3AF">Global Offices</text>
    <text x="110" y="70" text-anchor="middle" font-family="Helvetica,sans-serif" font-size="10" fill="#6B7280">24/7 local support</text>
  </g>
  <g transform="translate(860,505)">
    <rect width="220" height="85" rx="10" fill="rgba(196,160,82,0.04)" stroke="rgba(196,160,82,0.12)" stroke-width="1"/>
    <text x="110" y="30" text-anchor="middle" font-family="Helvetica,sans-serif" font-size="28" font-weight="bold" fill="#C4A052">0.1s</text>
    <text x="110" y="52" text-anchor="middle" font-family="Helvetica,sans-serif" font-size="12" fill="#9CA3AF">Avg. Transfer Speed</text>
    <text x="110" y="70" text-anchor="middle" font-family="Helvetica,sans-serif" font-size="10" fill="#6B7280">Swift &amp; instant settlement</text>
  </g>
</svg>